<svg version="1.2" xmlns="http://www.w3.org/2000/svg" viewBox="0 0 448 448" width="448" height="448">
	<title>xmark-solid-svg</title>
	<style>
		.s0 { fill: #457b9d } 
	</style>
	<path id="Layer" class="s0" d="m287.4 224l147.5 147.4c17.5 17.5 17.5 45.9 0 63.4-17.5 17.5-45.9 17.5-63.4 0l-147.5-147.4-147.4 147.6c-17.5 17.5-45.9 17.5-63.4 0-17.5-17.5-17.5-46 0-63.4l147.4-147.6-147.6-147.3c-17.5-17.5-17.5-46 0-63.4 17.5-17.5 46-17.5 63.4 0l147.6 147.3 147.3-147.5c17.5-17.5 46-17.5 63.4 0 17.5 17.5 17.5 45.9 0 63.4z"/>
</svg>